<svg width="120" height="120" viewBox="0 0 120 120" fill="none" xmlns="http://www.w3.org/2000/svg">
<path d="M54.362 105.237V93.7275H58.1111V89.9784H11.2473C10.7501 89.9784 10.2733 89.7809 9.9218 89.4294C9.57025 89.0778 9.37275 88.601 9.37275 88.1039V14.9964H95.6021V29.9928H99.3512V14.9964H103.1C103.597 14.9964 104.074 14.7989 104.426 14.4474C104.777 14.0958 104.975 13.619 104.975 13.1219V5.62365C104.975 4.13217 104.382 2.70177 103.328 1.64713C102.273 0.59249 100.843 0 99.3512 0L5.62365 0C4.13217 0 2.70177 0.59249 1.64713 1.64713C0.59249 2.70177 0 4.13217 0 5.62365L0 13.1219C0 13.619 0.197497 14.0958 0.549043 14.4474C0.90059 14.7989 1.37739 14.9964 1.87455 14.9964H5.62365V88.1039C5.62365 89.5954 6.21614 91.0258 7.27078 92.0804C8.32542 93.135 9.75582 93.7275 11.2473 93.7275H50.6129V105.237C48.8458 105.694 47.3058 106.779 46.2815 108.289C45.2572 109.8 44.819 111.632 45.049 113.442C45.2789 115.253 46.1613 116.917 47.5307 118.124C48.9 119.33 50.6624 119.996 52.4874 119.996C54.3124 119.996 56.0748 119.33 57.4442 118.124C58.8135 116.917 59.6959 115.253 59.9258 113.442C60.1558 111.632 59.7176 109.8 58.6933 108.289C57.669 106.779 56.129 105.694 54.362 105.237ZM3.7491 5.62365C3.7491 5.12649 3.9466 4.64969 4.29814 4.29814C4.64969 3.9466 5.12649 3.7491 5.62365 3.7491H99.3512C99.8483 3.7491 100.325 3.9466 100.677 4.29814C101.028 4.64969 101.226 5.12649 101.226 5.62365V11.2473H3.7491V5.62365ZM52.4874 116.222C51.7459 116.222 51.0211 116.002 50.4045 115.59C49.788 115.178 49.3075 114.593 49.0237 113.908C48.7399 113.223 48.6657 112.469 48.8103 111.742C48.955 111.014 49.3121 110.346 49.8364 109.822C50.3607 109.298 51.0287 108.941 51.756 108.796C52.4833 108.651 53.2371 108.726 53.9221 109.009C54.6072 109.293 55.1927 109.774 55.6047 110.39C56.0166 111.007 56.2365 111.732 56.2365 112.473C56.2365 113.467 55.8415 114.421 55.1384 115.124C54.4353 115.827 53.4817 116.222 52.4874 116.222Z" fill="url(#paint0_linear_509_143)"/>
<path d="M86.2293 33.7419C79.764 33.7403 73.4362 35.6087 68.0087 39.1219L53.7996 24.9128C53.4505 24.5664 52.9792 24.3712 52.4874 24.3691H16.871V28.1182H51.7189L64.9344 41.3338C58.7698 46.3607 54.5793 53.4039 53.1026 61.22C51.626 69.0362 52.9582 77.1227 56.8641 84.0521C60.7699 90.9816 66.9983 96.3083 74.4497 99.092C81.9011 101.876 90.0964 101.937 97.5889 99.2663C105.081 96.5951 111.389 91.3628 115.399 84.493C119.409 77.6232 120.863 69.5576 119.504 61.7201C118.145 53.8826 114.061 46.7771 107.973 41.658C101.885 36.5388 94.1837 33.7351 86.2293 33.7419ZM88.1039 37.5847C94.7534 38.01 101.069 40.6497 106.043 45.0829L88.1039 62.9661V37.5847ZM56.2365 67.4838C56.2454 59.8598 59.1574 52.5253 64.3805 46.9714C69.6036 41.4176 76.7457 38.0612 84.3548 37.5847V67.4838C84.3534 67.7305 84.4006 67.9751 84.4939 68.2035C84.5872 68.4318 84.7247 68.6396 84.8984 68.8147L106.043 89.9784C101.714 93.7885 96.3772 96.2695 90.6734 97.1241C84.9696 97.9786 79.1404 97.1706 73.8841 94.7966C68.6279 92.4227 64.1676 88.5837 61.0376 83.7394C57.9076 78.8952 56.2407 73.2513 56.2365 67.4838ZM108.724 87.2978L88.8725 67.4838L108.724 47.6698C113.58 53.1273 116.264 60.1783 116.264 67.4838C116.264 74.7893 113.58 81.8403 108.724 87.2978Z" fill="url(#paint1_linear_509_143)"/>
<path d="M46.8638 33.7417C46.8638 33.2446 46.6663 32.7678 46.3147 32.4162C45.9632 32.0647 45.4864 31.8672 44.9892 31.8672H18.7455C18.2484 31.8672 17.7716 32.0647 17.42 32.4162C17.0685 32.7678 16.871 33.2446 16.871 33.7417V44.989C16.871 45.4862 17.0685 45.963 17.42 46.3145C17.7716 46.6661 18.2484 46.8636 18.7455 46.8636H44.9892C45.4864 46.8636 45.9632 46.6661 46.3147 46.3145C46.6663 45.963 46.8638 45.4862 46.8638 44.989V33.7417ZM43.1147 43.1145H20.6201V35.6163H43.1147V43.1145Z" fill="url(#paint2_linear_509_143)"/>
<path d="M46.8638 52.4873C46.8638 51.9902 46.6663 51.5134 46.3147 51.1618C45.9632 50.8103 45.4864 50.6128 44.9892 50.6128H18.7455C18.2484 50.6128 17.7716 50.8103 17.42 51.1618C17.0685 51.5134 16.871 51.9902 16.871 52.4873V63.7346C16.871 64.2318 17.0685 64.7086 17.42 65.0602C17.7716 65.4117 18.2484 65.6092 18.7455 65.6092H44.9892C45.4864 65.6092 45.9632 65.4117 46.3147 65.0602C46.6663 64.7086 46.8638 64.2318 46.8638 63.7346V52.4873ZM43.1147 61.8601H20.6201V54.3619H43.1147V61.8601Z" fill="url(#paint3_linear_509_143)"/>
<path d="M44.9892 69.3584H18.7455C18.2484 69.3584 17.7716 69.5559 17.42 69.9074C17.0685 70.259 16.871 70.7358 16.871 71.2329V82.4803C16.871 82.9774 17.0685 83.4542 17.42 83.8058C17.7716 84.1573 18.2484 84.3548 18.7455 84.3548H44.9892C45.4864 84.3548 45.9632 84.1573 46.3147 83.8058C46.6663 83.4542 46.8638 82.9774 46.8638 82.4803V71.2329C46.8638 70.7358 46.6663 70.259 46.3147 69.9074C45.9632 69.5559 45.4864 69.3584 44.9892 69.3584ZM43.1147 80.6057H20.6201V73.1075H43.1147V80.6057Z" fill="url(#paint4_linear_509_143)"/>
<path d="M91.853 18.7454H88.1039V22.4945H91.853V18.7454Z" fill="url(#paint5_linear_509_143)"/>
<path d="M84.3548 18.7454H80.6057V22.4945H84.3548V18.7454Z" fill="url(#paint6_linear_509_143)"/>
<path d="M91.853 26.2437H88.1039V29.9928H91.853V26.2437Z" fill="url(#paint7_linear_509_143)"/>
<defs>
<linearGradient id="paint0_linear_509_143" x1="112.777" y1="13.7271" x2="-0.636248" y2="115.071" gradientUnits="userSpaceOnUse">
<stop stop-color="#FC9F47"/>
<stop offset="0.648958" stop-color="#D73777"/>
<stop offset="1" stop-color="#8F44B2"/>
</linearGradient>
<linearGradient id="paint1_linear_509_143" x1="127.665" y1="33.1613" x2="58.0521" y2="128.574" gradientUnits="userSpaceOnUse">
<stop stop-color="#FC9F47"/>
<stop offset="0.648958" stop-color="#D73777"/>
<stop offset="1" stop-color="#8F44B2"/>
</linearGradient>
<linearGradient id="paint2_linear_509_143" x1="49.093" y1="33.5827" x2="37.8281" y2="56.5957" gradientUnits="userSpaceOnUse">
<stop stop-color="#FC9F47"/>
<stop offset="0.648958" stop-color="#D73777"/>
<stop offset="1" stop-color="#8F44B2"/>
</linearGradient>
<linearGradient id="paint3_linear_509_143" x1="49.093" y1="52.3283" x2="37.8281" y2="75.3413" gradientUnits="userSpaceOnUse">
<stop stop-color="#FC9F47"/>
<stop offset="0.648958" stop-color="#D73777"/>
<stop offset="1" stop-color="#8F44B2"/>
</linearGradient>
<linearGradient id="paint4_linear_509_143" x1="49.093" y1="71.0739" x2="37.8281" y2="94.0869" gradientUnits="userSpaceOnUse">
<stop stop-color="#FC9F47"/>
<stop offset="0.648958" stop-color="#D73777"/>
<stop offset="1" stop-color="#8F44B2"/>
</linearGradient>
<linearGradient id="paint5_linear_509_143" x1="92.1316" y1="19.1742" x2="88.5665" y2="22.8158" gradientUnits="userSpaceOnUse">
<stop stop-color="#FC9F47"/>
<stop offset="0.648958" stop-color="#D73777"/>
<stop offset="1" stop-color="#8F44B2"/>
</linearGradient>
<linearGradient id="paint6_linear_509_143" x1="84.6335" y1="19.1742" x2="81.0684" y2="22.8158" gradientUnits="userSpaceOnUse">
<stop stop-color="#FC9F47"/>
<stop offset="0.648958" stop-color="#D73777"/>
<stop offset="1" stop-color="#8F44B2"/>
</linearGradient>
<linearGradient id="paint7_linear_509_143" x1="92.1316" y1="26.6725" x2="88.5665" y2="30.3141" gradientUnits="userSpaceOnUse">
<stop stop-color="#FC9F47"/>
<stop offset="0.648958" stop-color="#D73777"/>
<stop offset="1" stop-color="#8F44B2"/>
</linearGradient>
</defs>
</svg>
