<svg width="160" height="161" viewBox="0 0 160 161" fill="none" xmlns="http://www.w3.org/2000/svg">
<path d="M125.331 70.7108V29.3794H130.558C132.693 29.3884 134.632 28.1322 135.496 26.1795C136.413 24.2196 136.087 21.9034 134.665 20.2732L118.745 1.94047C117.701 0.795513 116.224 0.141789 114.675 0.139289C113.126 0.13679 111.646 0.785513 110.599 1.92734L94.6661 20.2732C93.2443 21.904 92.9184 24.2196 93.8343 26.1795C94.698 28.1328 96.637 29.389 98.7728 29.3794H103.999V70.7111C81.6854 76.1131 66.9332 97.3441 69.6531 120.141C72.373 142.938 91.7069 160.102 114.665 160.102C137.624 160.102 156.957 142.938 159.678 120.141C162.398 97.3441 147.645 76.1131 125.331 70.7108ZM106.666 24.0461H98.7325L98.706 23.7796L114.705 5.43095L130.625 23.7796L130.558 24.0461H122.665C121.192 24.0461 119.999 25.2402 119.999 26.7126V69.719C116.458 69.264 112.873 69.264 109.332 69.719V26.7126C109.332 25.2402 108.138 24.0461 106.666 24.0461ZM114.665 154.708C92.575 154.708 74.6669 136.8 74.6669 114.709C74.6669 92.619 92.575 74.711 114.665 74.711C136.756 74.711 154.664 92.619 154.664 114.709C154.639 136.789 136.745 154.683 114.665 154.708Z" fill="#273B98"/>
<path d="M34.6686 89.3901V130.708H29.4419C27.3061 130.699 25.3674 131.955 24.5034 133.908C23.5875 135.868 23.9137 138.184 25.3352 139.815L41.2546 158.147C42.2658 159.348 43.7548 160.042 45.3247 160.044C46.8946 160.047 48.3858 159.358 49.4011 158.16L65.3233 139.815C66.752 138.185 67.0826 135.865 66.166 133.9C65.2998 131.95 63.3615 130.697 61.2275 130.708H56.0011V89.3901C78.3149 83.9882 93.0671 62.7572 90.3473 39.9603C87.6267 17.164 68.2932 0 45.3347 0C22.3762 0 3.04266 17.164 0.322453 39.9606C-2.39775 62.7571 12.3548 83.9882 34.6686 89.3901ZM53.3344 136.042H61.2675L61.2941 136.308L45.2947 154.657L29.3753 136.308L29.4419 136.042H37.335C38.8078 136.042 40.0015 134.848 40.0015 133.375V90.3688C41.7711 90.5866 43.5516 90.7004 45.3347 90.7101C47.1174 90.7004 48.8983 90.5863 50.6679 90.3688V133.375C50.6679 134.848 51.8616 136.042 53.3344 136.042ZM45.3347 5.38041C67.4251 5.38041 85.3331 23.2884 85.3331 45.3788C85.3331 67.4691 67.4251 85.3772 45.3347 85.3772C23.2443 85.3772 5.33631 67.4691 5.33631 45.3788C5.36131 23.2987 23.2547 5.40541 45.3347 5.38041Z" fill="#273B98"/>
<path d="M34.6685 56.045C34.6685 54.5722 33.4745 53.3785 32.0021 53.3785C30.5293 53.3785 29.3356 54.5725 29.3356 56.045C29.3356 62.6366 35.1141 68.1138 42.6685 69.1779V74.7111C42.6685 76.1838 43.8625 77.3775 45.335 77.3775C46.8074 77.3775 48.0014 76.1838 48.0014 74.7111V69.1779C55.5558 68.1114 61.3343 62.6369 61.3343 56.045C61.3343 49.453 55.5558 43.9761 48.0014 42.9121V26.9983C52.5878 27.8917 56.0011 30.9982 56.0011 34.7127C56.0011 36.1855 57.1951 37.3792 58.6675 37.3792C60.14 37.3792 61.334 36.1851 61.334 34.7127C61.334 28.1211 55.5555 22.6438 48.0011 21.5798V16.0466C48.0011 14.5738 46.8071 13.3801 45.3346 13.3801C43.8622 13.3801 42.6682 14.5741 42.6682 16.0466V21.5798C35.1138 22.6463 29.3353 28.1208 29.3353 34.7127C29.3353 41.3046 35.1138 46.7816 42.6682 47.8456V63.7597C38.0815 62.8659 34.6685 59.7623 34.6685 56.045ZM56.0008 56.045C56.0008 59.762 52.5875 62.8659 48.0011 63.7593V48.3306C52.5878 49.224 56.0008 52.3279 56.0008 56.045ZM34.6685 34.7124C34.6685 30.9954 38.0818 27.8914 42.6682 26.998V42.4268C38.0815 41.5337 34.6685 38.4297 34.6685 34.7124Z" fill="#273B98"/>
<path d="M114.665 96.0434C119.67 96.1343 124.304 98.7014 127.035 102.897C127.564 103.714 128.496 104.178 129.467 104.107C130.438 104.037 131.293 103.443 131.699 102.558C132.104 101.673 131.995 100.638 131.414 99.8566C127.698 94.2137 121.421 90.7861 114.665 90.7104C105.192 91.0792 97.0563 97.5589 94.578 106.71H87.9995C86.5267 106.71 85.333 107.904 85.333 109.376C85.333 110.849 86.5267 112.043 87.9995 112.043H93.4711C93.3858 112.92 93.3324 113.808 93.3324 114.709C93.3324 115.61 93.3858 116.498 93.4711 117.376H87.9995C86.5267 117.376 85.333 118.569 85.333 120.042C85.333 121.515 86.5267 122.709 87.9995 122.709H94.578C97.0563 131.859 105.192 138.339 114.665 138.708C121.421 138.632 127.698 135.204 131.414 129.562C131.995 128.78 132.104 127.745 131.699 126.86C131.293 125.975 130.438 125.382 129.467 125.311C128.496 125.24 127.564 125.705 127.035 126.522C124.304 130.717 119.67 133.284 114.665 133.375C108.128 133.097 102.416 128.876 100.231 122.709H114.665C116.138 122.709 117.332 121.515 117.332 120.042C117.332 118.57 116.138 117.376 114.665 117.376H98.8472C98.6053 115.606 98.6053 113.812 98.8472 112.043H114.665C116.138 112.043 117.332 110.849 117.332 109.376C117.332 107.904 116.138 106.71 114.665 106.71H100.231C102.416 100.542 108.128 96.3209 114.665 96.0434Z" fill="#273B98"/>
</svg>
