<svg width="160" height="146" viewBox="0 0 160 146" fill="none" xmlns="http://www.w3.org/2000/svg">
<path d="M101.253 41.151C100.328 40.4225 99.0079 40.4871 98.1583 41.3025L79.0483 59.634C78.4212 60.2136 78.1551 61.0869 78.3541 61.9181C78.5517 62.748 79.184 63.4067 80.0059 63.6399C80.8279 63.873 81.7118 63.6438 82.3165 63.0392L99.9445 46.129L118.218 60.5245C119.07 61.195 120.27 61.2002 121.128 60.5337L146.911 40.4976L145.989 52.4916C145.889 53.7918 146.861 54.9259 148.161 55.0261C148.223 55.0313 148.284 55.034 148.345 55.034C149.578 55.0326 150.602 54.0829 150.696 52.8538L152.029 35.5222C152.078 34.8965 151.875 34.276 151.464 33.8005C151.054 33.3236 150.471 33.0312 149.845 32.9864L131.179 31.6533C129.884 31.5677 128.763 32.5451 128.669 33.84C128.577 35.1349 129.548 36.2625 130.842 36.3626L143.385 37.2584L119.689 55.6729L101.253 41.151Z" fill="#273B98"/>
<path d="M157.639 141.127H152.494V71.8967C152.487 71.2788 152.232 70.6913 151.785 70.2645C151.339 69.839 150.739 69.6111 150.123 69.6349H128.802C128.197 69.6151 127.609 69.8469 127.178 70.2751C126.747 70.7032 126.512 71.2894 126.528 71.8967V141.127H113.713V84.9695C113.713 83.6654 112.67 82.4495 111.365 82.4495H90.0463C88.7435 82.4495 87.7463 83.6654 87.7463 84.9695V141.127H74.9317V109.316C74.9356 108.705 74.6906 108.118 74.252 107.694C73.8133 107.27 73.2192 107.042 72.6093 107.067H51.2902C50.6803 107.042 50.0862 107.269 49.6475 107.694C49.2076 108.118 48.9612 108.705 48.9652 109.316V141.127H7.26751C5.96339 141.127 4.90692 142.184 4.90692 143.488C4.90692 144.79 5.96339 145.848 7.26751 145.848H157.639C158.943 145.848 160 144.79 160 143.488C160 142.184 158.943 141.127 157.639 141.127ZM92.4675 87.1707H108.992V141.127H92.4675V87.1707ZM53.6864 141.127V111.788H70.2105V141.127H53.6864ZM131.249 141.127V74.356H147.773V141.127H131.249Z" fill="#273B98"/>
<path d="M36.4877 28.1375V24.4319C36.4877 18.0997 31.3542 12.9662 25.022 12.9662C18.6898 12.9662 13.5563 18.0997 13.5563 24.4319V28.1375C13.5563 34.4697 18.6898 39.6032 25.022 39.6032C31.3542 39.6032 36.4877 34.4697 36.4877 28.1375ZM18.2775 28.1375V24.4319C18.2617 22.6101 18.973 20.8581 20.2547 19.5619C21.5351 18.267 23.2805 17.5359 25.1024 17.5306H24.9838C26.8017 17.5372 28.5405 18.2696 29.8143 19.5672C31.0882 20.8634 31.7916 22.6154 31.7666 24.4319V28.1375C31.7666 31.9431 28.8277 35.0401 25.022 35.0401C21.2163 35.0401 18.2775 31.9431 18.2775 28.1375Z" fill="#273B98"/>
<path d="M7.50201 87.8451L7.585 87.9176C8.65991 87.9189 9.72165 87.6792 10.6925 87.2181L11.94 129.191C12.0493 132.322 13.9989 135.093 16.9088 136.252C19.82 137.412 23.1396 136.742 25.3724 134.545C27.6039 136.747 30.9275 137.422 33.84 136.261C36.7525 135.1 38.7021 132.326 38.8075 129.194L40.0524 87.3011C41.0324 87.7582 42.1021 87.9953 43.1836 87.9953C47.3093 87.99 50.65 84.6454 50.6513 80.521V52.1636C51.277 45.5995 46.4913 39.7586 39.9312 39.0828C39.5307 39.042 39.1329 38.9471 38.7324 38.9471H33.8545C33.2459 38.9761 32.6702 39.2304 32.2395 39.6611L25.3777 46.1369L18.7886 39.6717C18.3526 39.2277 17.7637 38.9682 17.142 38.9471H11.9663C5.33242 39.0091 -0.00920916 44.4086 1.19206e-05 51.0425C1.19206e-05 51.4022 0.0671941 51.8039 0.0671941 52.1636V80.5236C0.0566557 82.4824 0.839129 84.3609 2.2381 85.7322C3.63575 87.1154 5.53265 87.8768 7.49937 87.8451H7.50201ZM30.9051 132.102C29.1491 132.101 27.7251 130.68 27.7199 128.924V87.0772C27.7199 85.7743 26.6634 84.7166 25.3593 84.7166C24.0565 84.7166 22.9987 85.7743 22.9987 87.0772V128.924C23.0013 130.661 21.6063 132.079 19.8688 132.102C18.1313 132.125 16.698 130.747 16.6546 129.009L15.2161 80.4261H35.5301L34.085 128.993C34.031 130.715 32.6281 132.088 30.9051 132.102ZM4.78838 80.5236V52.0503C4.78838 51.9712 4.76599 51.8922 4.75808 51.8145C4.73042 51.5708 4.71461 51.3271 4.71066 51.0821C4.70407 49.1325 5.4681 47.2593 6.83546 45.8708C8.18437 44.4837 10.0312 43.6907 11.965 43.6683H16.183L23.7034 51.057C23.7192 51.0715 23.735 51.1203 23.7508 51.1348C23.7825 51.1651 23.8154 51.2125 23.8483 51.2401C23.876 51.2625 23.905 51.2942 23.9326 51.3152C23.9669 51.3416 24.0024 51.3719 24.038 51.3956C24.0683 51.4153 24.0986 51.4364 24.1289 51.4549C24.1592 51.4733 24.2 51.4983 24.2369 51.5181C24.2738 51.5379 24.3015 51.5523 24.3357 51.5681C24.3687 51.5853 24.4069 51.6024 24.4437 51.6169C24.4806 51.6327 24.5136 51.6459 24.5491 51.6577C24.5847 51.6709 24.6216 51.6828 24.6571 51.6946C24.694 51.7051 24.7309 51.7157 24.7678 51.7249C24.806 51.7354 24.8402 51.7433 24.8771 51.7499C24.914 51.7578 24.9522 51.7644 24.9904 51.7697C25.0286 51.7763 25.0642 51.7816 25.1024 51.7842C25.1393 51.7881 25.1775 51.7921 25.2144 51.7934C25.2526 51.796 25.2908 51.7974 25.329 51.7974C25.3672 51.7987 25.4027 51.7974 25.4396 51.796C25.4765 51.7934 25.5173 51.7921 25.5569 51.7895C25.5951 51.7855 25.628 51.7816 25.6636 51.7763C25.7004 51.7723 25.7426 51.7657 25.7821 51.7578C25.8216 51.7513 25.8519 51.7447 25.8875 51.7354C25.9217 51.7275 25.9652 51.717 26.0034 51.7065C26.0429 51.6946 26.0706 51.6854 26.1048 51.6722C26.1391 51.659 26.1799 51.6459 26.2181 51.6314C26.255 51.6156 26.2853 51.6024 26.3196 51.5866C26.3525 51.5721 26.3907 51.5537 26.425 51.5365C26.4605 51.5181 26.4921 51.4996 26.5264 51.4812C26.5606 51.4614 26.5936 51.4404 26.6278 51.4193C26.6607 51.3982 26.6924 51.3758 26.7253 51.3521C26.7582 51.3284 26.7885 51.306 26.8188 51.281C26.8504 51.2559 26.8807 51.2296 26.911 51.2033C26.9282 51.1888 26.9453 51.1005 26.9624 51.0847L34.7885 43.6657H38.7324C38.9748 43.6657 39.2212 43.7526 39.4635 43.7777C43.4563 44.2045 46.3543 47.777 45.9499 51.7736C45.942 51.8527 45.9301 51.9686 45.9301 52.049V80.5183C45.9301 82.0082 44.7222 83.2162 43.2323 83.2162C41.7425 83.2162 40.5345 82.0082 40.5345 80.5183V74.3218L40.5635 73.347C40.5674 73.1968 40.5345 73.0519 40.5345 72.9083V61.465C40.5345 60.1609 39.478 59.1044 38.1739 59.1044C36.8698 59.1044 35.8133 60.1609 35.8133 61.465V74.2454L35.671 75.7049H15.0751L14.9671 73.1599C14.9632 73.0585 14.9052 73.0058 14.9052 72.9083V61.465C14.9052 60.1609 13.8487 59.1044 12.5446 59.1044C11.2418 59.1044 10.184 60.1609 10.184 61.465V80.38C10.213 81.0993 9.94559 81.7988 9.44633 82.3165C8.94576 82.8341 8.25682 83.1266 7.53757 83.124H7.49937C6.7854 83.1529 6.08987 82.8882 5.5748 82.3929C5.06501 81.9055 4.78048 81.2297 4.78838 80.5236Z" fill="#273B98"/>
<path d="M69.7824 1.15788e-07C55.9126 -0.00131743 44.6695 11.2418 44.6695 25.1116C44.6695 38.9801 55.9126 50.2232 69.7811 50.2232C83.6509 50.2232 94.894 38.9801 94.894 25.1116C94.8782 11.2497 83.6443 0.0158077 69.7824 1.15788e-07ZM69.7824 45.502C58.5209 45.502 49.3907 36.3731 49.3907 25.1116C49.3907 13.85 58.5195 4.71987 69.7811 4.71987C81.0426 4.71987 90.1728 13.85 90.1728 25.1116C90.1596 36.3679 81.0374 45.4888 69.7824 45.502Z" fill="#273B98"/>
<path d="M76.0817 14.8788C77.2989 15.3478 78.665 14.7405 79.1326 13.5246C79.6016 12.3075 78.9943 10.9414 77.7784 10.4725C74.0175 9.02213 69.8312 9.14991 66.1665 10.8281C62.5017 12.5064 59.6682 15.5928 58.3101 19.3879H55.7098C54.407 19.3879 53.3492 20.4444 53.3492 21.7485C53.3492 23.0513 54.407 24.1091 55.7098 24.1091H57.4447C57.4315 24.6716 57.4486 25.2341 57.4987 25.7953H55.7098C54.407 25.7953 53.3492 26.8517 53.3492 28.1558C53.3492 29.4587 54.407 30.5164 55.7098 30.5164H58.7237C61.963 37.7971 70.3397 41.2643 77.7771 38.4018C78.5728 38.1041 79.1471 37.4033 79.2815 36.5641C79.4171 35.7263 79.0904 34.8793 78.4292 34.3485C77.7666 33.8176 76.8695 33.6819 76.0804 33.9954C71.7729 35.6552 66.8883 34.2299 64.1484 30.5164H72.9084C74.2125 30.5164 75.269 29.4587 75.269 28.1558C75.269 26.8517 74.2125 25.7953 72.9084 25.7953H62.2475C62.1724 25.2354 62.1448 24.6716 62.1632 24.1091H74.5945C75.8986 24.1091 76.9551 23.0513 76.9551 21.7485C76.9551 20.4444 75.8986 19.3879 74.5945 19.3879H63.4845C65.9847 14.9684 71.3448 13.0504 76.0817 14.8788Z" fill="#273B98"/>
</svg>
