<svg width="160" height="136" viewBox="0 0 160 136" fill="none" xmlns="http://www.w3.org/2000/svg">
<path d="M152.6 61.6516C147.826 56.8806 141.481 54.2531 134.734 54.2531H132.36C132.382 53.6281 132.394 53.0069 132.394 52.3938C132.394 23.5038 108.89 0 80 0C56.8384 0 36.4363 15.2512 29.82 37.2903C26.4625 37.6906 23.2081 38.5856 20.1247 39.9591C18.9422 40.4856 18.4106 41.8713 18.9372 43.0534C19.4641 44.2359 20.8497 44.7681 22.0316 44.2409C25.1181 42.8662 28.4053 42.0481 31.8016 41.8097C32.8003 41.7397 33.6441 41.0428 33.9022 40.0753C39.4547 19.2394 58.4109 4.6875 80 4.6875C106.305 4.6875 127.706 26.0884 127.706 52.3938C127.706 53.7025 127.649 55.0509 127.536 56.4019C127.482 57.055 127.703 57.7016 128.147 58.1838C128.591 58.6663 129.217 58.9406 129.872 58.9406H134.735C140.23 58.9406 145.398 61.0809 149.286 64.9659C153.172 68.8553 155.312 74.0234 155.312 79.5188C155.312 90.8672 146.081 100.1 134.734 100.1H118.068C118.139 99.1503 118.176 98.1913 118.176 97.2238C118.176 81.1966 108.247 67.4466 94.2184 61.7959V50.6528L100.301 44.57C101.628 45.3369 103.166 45.7784 104.805 45.7784C109.784 45.7784 113.835 41.7278 113.835 36.7484C113.835 31.7691 109.784 27.7184 104.805 27.7184C99.8259 27.7184 95.775 31.7694 95.775 36.7484C95.775 38.3897 96.2172 39.9284 96.9856 41.2563L90.2172 48.0247C89.7775 48.4641 89.5306 49.0603 89.5306 49.6819V60.2519C87.2122 59.6538 84.8084 59.2716 82.3431 59.1216V34.9728C86.1894 33.9378 89.0294 30.4216 89.0294 26.2531C89.0294 21.2741 84.9784 17.2231 79.9994 17.2231C75.0203 17.2231 70.9694 21.2741 70.9694 26.2531C70.9694 30.4216 73.8094 33.9378 77.6556 34.9728V59.1216C75.1903 59.2716 72.7866 59.6538 70.4681 60.2519V49.6819C70.4681 49.0603 70.2212 48.4641 69.7816 48.0247L63.0128 41.2559C63.7816 39.9281 64.2241 38.3888 64.2241 36.7472C64.2241 31.7681 60.1731 27.7172 55.1941 27.7172C50.215 27.7172 46.1641 31.7681 46.1641 36.7472C46.1641 41.7262 50.215 45.7772 55.1941 45.7772C56.8334 45.7772 58.3706 45.3359 59.6972 44.5691L65.7806 50.6525V61.7956C51.7519 67.4463 41.8231 81.1963 41.8231 97.2234C41.8231 98.1909 41.86 99.15 41.9309 100.1H33.8687C26.0731 100.1 18.7444 97.0641 13.2328 91.5522C7.72219 86.0391 4.6875 78.7112 4.6875 70.9187C4.6875 62.4675 8.34813 54.44 14.7309 48.8944C15.7081 48.0453 15.8119 46.565 14.9631 45.5878C14.1141 44.6109 12.6341 44.5066 11.6566 45.3556C4.24875 51.7922 0 61.1094 0 70.9187C0 79.9628 3.52219 88.4675 9.91781 94.8666C16.3153 101.264 24.8212 104.788 33.8687 104.788H42.5778C46.0972 122.227 61.5384 135.4 80 135.4C98.4616 135.4 113.903 122.227 117.422 104.788H134.734C148.666 104.788 160 93.4519 160 79.5188C160 72.7719 157.372 66.4272 152.6 61.6516ZM104.805 32.4062C107.2 32.4062 109.148 34.3544 109.148 36.7487C109.148 39.1431 107.2 41.0913 104.805 41.0913C102.411 41.0913 100.463 39.1434 100.463 36.7487C100.463 34.3541 102.411 32.4062 104.805 32.4062ZM50.8522 36.7475C50.8522 34.3531 52.8003 32.405 55.1947 32.405C57.5891 32.405 59.5372 34.3531 59.5372 36.7475C59.5372 39.1419 57.5891 41.09 55.1947 41.09C52.8003 41.09 50.8522 39.1419 50.8522 36.7475ZM75.6575 26.2534C75.6575 23.8591 77.6056 21.9109 80 21.9109C82.3944 21.9109 84.3425 23.8591 84.3425 26.2534C84.3425 28.6478 82.3944 30.5959 80 30.5959C77.6056 30.5959 75.6575 28.6478 75.6575 26.2534ZM80 130.713C61.5344 130.713 46.5112 115.69 46.5112 97.2238C46.5112 78.7578 61.5344 63.7353 80 63.7353C98.4656 63.7353 113.489 78.7581 113.489 97.2241C113.489 115.69 98.4656 130.713 80 130.713Z" fill="#273B98"/>
<path d="M80 68.2594C64.03 68.2594 51.0375 81.2535 51.0375 97.225C51.0375 113.195 64.03 126.188 80 126.188C85.7631 126.188 91.3334 124.496 96.1078 121.297C97.1831 120.576 97.4706 119.121 96.75 118.045C96.0294 116.97 94.5737 116.682 93.4981 117.403C89.4981 120.083 84.8306 121.5 79.9997 121.5C66.6143 121.5 55.7247 110.61 55.7247 97.225C55.7247 83.8382 66.6143 72.9469 79.9997 72.9469C93.385 72.9469 104.275 83.8382 104.275 97.225C104.275 102.418 102.658 107.37 99.5993 111.547C98.8347 112.591 99.0609 114.058 100.105 114.822C101.15 115.587 102.616 115.361 103.381 114.316C107.032 109.331 108.962 103.421 108.962 97.225C108.962 81.2531 95.97 68.2594 80 68.2594Z" fill="#273B98"/>
<path d="M82.7697 117.257C84.0641 117.257 85.1134 116.208 85.1134 114.913V111.317H85.1484C90.0387 111.317 94.0172 107.339 94.0172 102.448C94.0172 99.0404 92.0837 96.0769 89.2569 94.5926C89.9428 93.4541 90.3381 92.1219 90.3381 90.6988C90.3381 87.3435 88.1428 84.4932 85.1134 83.5038V79.5344C85.1134 78.24 84.0641 77.1907 82.7697 77.1907C81.4753 77.1907 80.4259 78.24 80.4259 79.5344V83.1307H78.2322V79.5344C78.2322 78.24 77.1828 77.1907 75.8884 77.1907C74.5941 77.1907 73.5447 78.24 73.5447 79.5344V83.1307H73.2125H69.1434C67.8491 83.1307 66.7997 84.18 66.7997 85.4744C66.7997 86.7688 67.8491 87.8182 69.1434 87.8182H70.8687V106.63H69.1434C67.8491 106.63 66.7997 107.679 66.7997 108.973C66.7997 110.268 67.8491 111.317 69.1434 111.317H73.2125H73.5447V114.913C73.5447 116.208 74.5941 117.257 75.8884 117.257C77.1828 117.257 78.2322 116.208 78.2322 114.913V111.317H80.4259V114.913C80.4259 116.208 81.4753 117.257 82.7697 117.257ZM85.1484 106.63H75.5562V98.2672H82.7697H85.1484C87.4537 98.2672 89.3297 100.143 89.3297 102.448C89.3297 104.754 87.4541 106.63 85.1484 106.63ZM82.7697 93.5797H75.5562V87.8182H82.7697C84.3581 87.8182 85.6506 89.1104 85.6506 90.6988C85.6506 92.2872 84.3581 93.5797 82.7697 93.5797Z" fill="#273B98"/>
</svg>
