<svg width="160" height="160" viewBox="0 0 160 160" fill="none" xmlns="http://www.w3.org/2000/svg">
<path d="M136 24H114.667V18.6667C114.664 18.2532 114.566 17.8459 114.381 17.4761C114.196 17.1062 113.929 16.7837 113.6 16.5334L92.2667 0.533372C91.8066 0.184371 91.2442 -0.00309427 90.6667 3.86385e-05H48C47.2928 3.86385e-05 46.6145 0.28099 46.1144 0.781087C45.6143 1.28118 45.3334 1.95946 45.3334 2.6667V24H24C23.2928 24 22.6145 24.281 22.1144 24.7811C21.6143 25.2812 21.3334 25.9595 21.3334 26.6667V90.6667H26.6667V29.3334H45.3334V45.3334C45.3302 45.9109 45.5177 46.4733 45.8667 46.9334L61.8667 68.2667C62.1171 68.5958 62.4396 68.863 62.8094 69.048C63.1792 69.2329 63.5866 69.3305 64 69.3334H77.3334V90.6667H82.6667V69.3334H112C112.707 69.3334 113.386 69.0524 113.886 68.5523C114.386 68.0522 114.667 67.3739 114.667 66.6667V29.3334H133.333V90.6667H138.667V26.6667C138.667 25.9595 138.386 25.2812 137.886 24.7811C137.386 24.281 136.707 24 136 24ZM61.3334 58.6667L50.6667 44.4534V9.09337L61.3334 19.76V58.6667ZM54.4267 5.33337H89.7867L104 16H65.0934L54.4267 5.33337ZM109.333 64H66.6667V21.3334H109.333V64Z" fill="#273B98"/>
<path d="M5.33333 16.0001H10.6667V10.6668H16V5.33345H10.6667V0.00012207H5.33333V5.33345H0V10.6668H5.33333V16.0001Z" fill="#273B98"/>
<path d="M154.667 5.33333V0H149.333V5.33333H144V10.6667H149.333V16H154.667V10.6667H160V5.33333H154.667Z" fill="#273B98"/>
<path d="M46.1867 138.8L32 134.08V130.587C33.6525 129.36 34.9953 127.764 35.9213 125.925C36.8473 124.087 37.3309 122.058 37.3333 120V117.307C37.8881 117.324 38.4328 117.155 38.88 116.827C39.2274 116.584 39.5107 116.261 39.7058 115.884C39.9008 115.508 40.0018 115.09 40 114.667V112C40 107.757 38.3143 103.687 35.3137 100.686C32.3131 97.6857 28.2435 96 24 96C19.7565 96 15.6869 97.6857 12.6863 100.686C9.68571 103.687 8 107.757 8 112V114.667C7.99819 115.09 8.09914 115.508 8.29421 115.884C8.48927 116.261 8.77263 116.584 9.12 116.827C9.56722 117.155 10.1119 117.324 10.6667 117.307V120C10.6712 123.542 12.0811 126.937 14.5867 129.44C15.0269 129.859 15.4995 130.242 16 130.587V134.08L1.81333 138.8C1.28672 138.984 0.829787 139.326 0.505157 139.779C0.180528 140.233 0.00408273 140.776 0 141.333V157.333C0 158.041 0.280951 158.719 0.781048 159.219C1.28115 159.719 1.95942 160 2.66667 160H45.3333C46.0406 160 46.7188 159.719 47.2189 159.219C47.719 158.719 48 158.041 48 157.333V141.333C47.9959 140.776 47.8195 140.233 47.4948 139.779C47.1702 139.326 46.7133 138.984 46.1867 138.8ZM32 120C32 121.051 31.7931 122.091 31.391 123.061C30.989 124.032 30.3997 124.914 29.6568 125.657C28.914 126.4 28.0321 126.989 27.0615 127.391C26.0909 127.793 25.0506 128 24 128C22.9494 128 21.9091 127.793 20.9385 127.391C19.9679 126.989 19.086 126.4 18.3431 125.657C17.6003 124.914 17.011 124.032 16.609 123.061C16.2069 122.091 16 121.051 16 120V115.707L17.9467 115.04L19.44 116.56C19.9444 117.057 20.6249 117.335 21.3333 117.333C21.6225 117.328 21.9097 117.283 22.1867 117.2L29.3333 114.8L32 115.707V120ZM13.3867 110.96C13.6508 108.329 14.883 105.889 16.8441 104.115C18.8052 102.341 21.3555 101.359 24 101.359C26.6445 101.359 29.1948 102.341 31.1559 104.115C33.117 105.889 34.3492 108.329 34.6133 110.96L30.1867 109.467C29.6331 109.28 29.0335 109.28 28.48 109.467L22.0533 111.627L20.56 110.107C20.0556 109.609 19.3751 109.331 18.6667 109.333C18.3775 109.339 18.0903 109.383 17.8133 109.467L13.3867 110.96ZM21.3333 154.667H5.33333V143.253L15.9467 139.707L21.3333 145.093V154.667ZM20.9867 137.227C21.2095 136.856 21.3291 136.432 21.3333 136V133.067C22.2123 133.236 23.1049 133.325 24 133.333C24.8952 133.326 25.7878 133.237 26.6667 133.067V136C26.6708 136.432 26.7905 136.856 27.0133 137.227L24 140.24L20.9867 137.227ZM42.6667 154.667H26.6667V145.093L32.0533 139.707L42.6667 143.253V154.667Z" fill="#273B98"/>
<path d="M102.187 138.8L88 134.08V130.587C89.6525 129.36 90.9953 127.764 91.9213 125.925C92.8473 124.087 93.3309 122.058 93.3333 120V117.307C93.8881 117.324 94.4328 117.155 94.88 116.827C95.2274 116.584 95.5107 116.261 95.7058 115.884C95.9008 115.508 96.0018 115.09 96 114.667V112C96 107.757 94.3143 103.687 91.3137 100.686C88.3131 97.6857 84.2435 96 80 96C75.7565 96 71.6869 97.6857 68.6863 100.686C65.6857 103.687 64 107.757 64 112V114.667C63.9982 115.09 64.0991 115.508 64.2942 115.884C64.4893 116.261 64.7726 116.584 65.12 116.827C65.5672 117.155 66.1119 117.324 66.6667 117.307V120C66.6712 123.542 68.0811 126.937 70.5867 129.44C71.0269 129.859 71.4995 130.242 72 130.587V134.08L57.8133 138.8C57.2867 138.984 56.8298 139.326 56.5052 139.779C56.1805 140.233 56.0041 140.776 56 141.333V157.333C56 158.041 56.2809 158.719 56.781 159.219C57.2811 159.719 57.9594 160 58.6667 160H101.333C102.041 160 102.719 159.719 103.219 159.219C103.719 158.719 104 158.041 104 157.333V141.333C103.996 140.776 103.819 140.233 103.495 139.779C103.17 139.326 102.713 138.984 102.187 138.8ZM88 120C88 122.122 87.1571 124.157 85.6568 125.657C84.1566 127.157 82.1217 128 80 128C77.8783 128 75.8434 127.157 74.3431 125.657C72.8428 124.157 72 122.122 72 120V115.707L73.9467 115.04L75.44 116.56C75.9444 117.057 76.6249 117.335 77.3333 117.333C77.6225 117.328 77.9097 117.283 78.1867 117.2L85.3333 114.8L88 115.707V120ZM69.3867 110.96C69.6508 108.329 70.883 105.889 72.8441 104.115C74.8052 102.341 77.3555 101.359 80 101.359C82.6445 101.359 85.1948 102.341 87.1559 104.115C89.117 105.889 90.3492 108.329 90.6133 110.96L86.1867 109.467C85.6331 109.28 85.0335 109.28 84.48 109.467L78.0533 111.627L76.56 110.107C76.0556 109.609 75.3751 109.331 74.6667 109.333C74.3775 109.339 74.0903 109.383 73.8133 109.467L69.3867 110.96ZM77.3333 154.667H61.3333V143.253L71.9467 139.707L77.3333 145.093V154.667ZM76.9867 137.227C77.2095 136.856 77.3291 136.432 77.3333 136V133.067C78.2123 133.236 79.1049 133.325 80 133.333C80.8952 133.326 81.7878 133.237 82.6667 133.067V136C82.6708 136.432 82.7905 136.856 83.0133 137.227L80 140.24L76.9867 137.227ZM98.6667 154.667H82.6667V145.093L88.0533 139.707L98.6667 143.253V154.667Z" fill="#273B98"/>
<path d="M158.187 138.8L144 134.08V130.587C145.652 129.36 146.995 127.764 147.921 125.925C148.847 124.087 149.331 122.058 149.333 120V117.307C149.888 117.324 150.433 117.155 150.88 116.827C151.227 116.584 151.511 116.261 151.706 115.884C151.901 115.508 152.002 115.09 152 114.667V112C152 107.757 150.314 103.687 147.314 100.686C144.313 97.6857 140.243 96 136 96C131.757 96 127.687 97.6857 124.686 100.686C121.686 103.687 120 107.757 120 112V114.667C119.998 115.09 120.099 115.508 120.294 115.884C120.489 116.261 120.773 116.584 121.12 116.827C121.567 117.155 122.112 117.324 122.667 117.307V120C122.671 123.542 124.081 126.937 126.587 129.44C127.027 129.859 127.499 130.242 128 130.587V134.08L113.813 138.8C113.287 138.984 112.83 139.326 112.505 139.779C112.181 140.233 112.004 140.776 112 141.333V157.333C112 158.041 112.281 158.719 112.781 159.219C113.281 159.719 113.959 160 114.667 160H157.333C158.041 160 158.719 159.719 159.219 159.219C159.719 158.719 160 158.041 160 157.333V141.333C159.996 140.776 159.819 140.233 159.495 139.779C159.17 139.326 158.713 138.984 158.187 138.8ZM144 120C144 122.122 143.157 124.157 141.657 125.657C140.157 127.157 138.122 128 136 128C133.878 128 131.843 127.157 130.343 125.657C128.843 124.157 128 122.122 128 120V115.707L129.947 115.04L131.44 116.56C131.944 117.057 132.625 117.335 133.333 117.333C133.623 117.328 133.91 117.283 134.187 117.2L141.333 114.8L144 115.707V120ZM125.387 110.96C125.651 108.329 126.883 105.889 128.844 104.115C130.805 102.341 133.355 101.359 136 101.359C138.645 101.359 141.195 102.341 143.156 104.115C145.117 105.889 146.349 108.329 146.613 110.96L142.187 109.467C141.633 109.28 141.034 109.28 140.48 109.467L134.053 111.627L132.56 110.107C132.056 109.609 131.375 109.331 130.667 109.333C130.377 109.339 130.09 109.383 129.813 109.467L125.387 110.96ZM133.333 154.667H117.333V143.253L127.947 139.707L133.333 145.093V154.667ZM132.987 137.227C133.209 136.856 133.329 136.432 133.333 136V133.067C134.212 133.236 135.105 133.325 136 133.333C136.895 133.326 137.788 133.237 138.667 133.067V136C138.671 136.432 138.791 136.856 139.013 137.227L136 140.24L132.987 137.227ZM154.667 154.667H138.667V145.093L144.053 139.707L154.667 143.253V154.667Z" fill="#273B98"/>
</svg>
