<svg width="160" height="155" viewBox="0 0 160 155" fill="none" xmlns="http://www.w3.org/2000/svg">
<path d="M80 69.3333C79.6107 69.3333 79.224 69.248 78.864 69.08L33.5307 47.7466C32.5973 47.3066 32 46.3653 32 45.3333C32 44.3013 32.5973 43.36 33.5307 42.92L78.864 21.5866C79.584 21.248 80.416 21.248 81.136 21.5866L126.469 42.92C127.403 43.36 128 44.3013 128 45.3333C128 46.3653 127.403 47.3066 126.469 47.7466L81.136 69.08C80.776 69.248 80.3893 69.3333 80 69.3333ZM40.9307 45.3333L80 63.72L119.069 45.3333L80 26.9466L40.9307 45.3333Z" fill="#273B98"/>
<path d="M80 90.6667C79.592 90.6667 79.1813 90.5733 78.808 90.3867L46.808 74.3867C45.904 73.9333 45.3333 73.0107 45.3333 72V51.608C45.3333 50.696 45.8 49.8453 46.5706 49.3573C47.3413 48.8667 48.3093 48.8107 49.1333 49.1947L80 63.72L110.864 49.1947C111.691 48.808 112.659 48.8667 113.427 49.3573C114.2 49.8453 114.667 50.696 114.667 51.608V72C114.667 73.0107 114.096 73.9333 113.192 74.3867L81.192 90.3867C80.8186 90.5733 80.408 90.6667 80 90.6667ZM50.6666 70.352L80 85.0187L109.333 70.352V55.8107L81.136 69.08C80.416 69.4187 79.584 69.4187 78.864 69.08L50.6666 55.8107V70.352Z" fill="#273B98"/>
<path d="M125.333 48H80C78.528 48 77.3333 46.8053 77.3333 45.3333C77.3333 43.8613 78.528 42.6666 80 42.6666H125.333C126.805 42.6666 128 43.8613 128 45.3333C128 46.8053 126.805 48 125.333 48Z" fill="#273B98"/>
<path d="M125.333 72C123.861 72 122.667 70.8053 122.667 69.3333V45.3333C122.667 43.8613 123.861 42.6666 125.333 42.6666C126.805 42.6666 128 43.8613 128 45.3333V69.3333C128 70.8053 126.805 72 125.333 72Z" fill="#273B98"/>
<path d="M80 53.3334C78.528 53.3334 77.3333 52.1387 77.3333 50.6667V40C77.3333 38.528 78.528 37.3334 80 37.3334C81.472 37.3334 82.6666 38.528 82.6666 40V50.6667C82.6666 52.1387 81.472 53.3334 80 53.3334Z" fill="#273B98"/>
<path d="M119.997 80C119.491 80 118.976 79.856 118.52 79.552C117.296 78.736 116.965 77.08 117.781 75.8533L123.115 67.8533C123.931 66.6266 125.584 66.2933 126.813 67.1146C128.037 67.9306 128.368 69.5866 127.552 70.8133L122.219 78.8133C121.704 79.584 120.859 80 119.997 80Z" fill="#273B98"/>
<path d="M130.669 80C129.808 80 128.963 79.584 128.448 78.8133L123.115 70.8133C122.299 69.5893 122.629 67.9306 123.853 67.1146C125.077 66.2933 126.733 66.6266 127.552 67.8533L132.885 75.8533C133.701 77.0773 133.371 78.736 132.147 79.552C131.691 79.856 131.176 80 130.669 80Z" fill="#273B98"/>
<path d="M80 77.3333C78.528 77.3333 77.3333 76.1387 77.3333 74.6667V66.6667C77.3333 65.1947 78.528 64 80 64C81.472 64 82.6666 65.1947 82.6666 66.6667V74.6667C82.6666 76.1387 81.472 77.3333 80 77.3333Z" fill="#273B98"/>
<path d="M157.333 101.333H2.66667C1.19467 101.333 0 100.139 0 98.6667V10.6693C0 4.78667 4.78667 0 10.6693 0H149.331C155.213 0 160 4.78667 160 10.6693V98.6667C160 100.139 158.805 101.333 157.333 101.333ZM5.33333 96H154.667V10.6693C154.667 7.72533 152.275 5.33333 149.331 5.33333H10.6693C7.72533 5.33333 5.33333 7.72533 5.33333 10.6693V96Z" fill="#273B98"/>
<path d="M149.331 122.667H10.6693C4.78667 122.667 0 117.88 0 111.997V98.6667C0 97.1947 1.19467 96 2.66667 96H157.333C158.805 96 160 97.1947 160 98.6667V111.997C160 117.88 155.213 122.667 149.331 122.667ZM5.33333 101.333V111.997C5.33333 114.941 7.72533 117.333 10.6693 117.333H149.331C152.275 117.333 154.667 114.941 154.667 111.997V101.333H5.33333Z" fill="#273B98"/>
<path d="M88 112H72C70.528 112 69.3334 110.805 69.3334 109.333C69.3334 107.861 70.528 106.667 72 106.667H88C89.472 106.667 90.6667 107.861 90.6667 109.333C90.6667 110.805 89.472 112 88 112Z" fill="#273B98"/>
<path d="M146.667 101.333H13.3333C11.8613 101.333 10.6667 100.139 10.6667 98.6666V13.3333C10.6667 11.8613 11.8613 10.6666 13.3333 10.6666H146.667C148.139 10.6666 149.333 11.8613 149.333 13.3333V98.6666C149.333 100.139 148.139 101.333 146.667 101.333ZM16 96H144V16H16V96Z" fill="#273B98"/>
<path d="M114.667 154.667H45.3333C40.9227 154.667 37.3333 151.077 37.3333 146.667C37.3333 142.256 40.9227 138.667 45.3333 138.667H114.667C119.077 138.667 122.667 142.256 122.667 146.667C122.667 151.077 119.077 154.667 114.667 154.667ZM45.3333 144C43.864 144 42.6667 145.197 42.6667 146.667C42.6667 148.136 43.864 149.333 45.3333 149.333H114.667C116.136 149.333 117.333 148.136 117.333 146.667C117.333 145.197 116.136 144 114.667 144H45.3333Z" fill="#273B98"/>
<path d="M109.333 144H50.6667C49.1947 144 48 142.805 48 141.333C48 139.861 49.1947 138.667 50.6667 138.667C59.5147 138.667 64 132.387 64 120C64 118.528 65.1947 117.333 66.6667 117.333H93.3333C94.8053 117.333 96 118.528 96 120C96 132.387 100.485 138.667 109.333 138.667C110.805 138.667 112 139.861 112 141.333C112 142.805 110.805 144 109.333 144ZM63.656 138.667H96.3467C93.0613 135.029 91.128 129.613 90.7413 122.667H69.2613C68.872 129.613 66.9413 135.029 63.656 138.667Z" fill="#273B98"/>
</svg>
