<svg width="160" height="160" viewBox="0 0 160 160" fill="none" xmlns="http://www.w3.org/2000/svg">
<path d="M157.419 139.355H154.839V116.129C154.836 114.841 154.512 113.573 153.896 112.442C153.28 111.31 152.392 110.35 151.311 109.649L156.903 102.194C157.191 101.81 157.366 101.354 157.409 100.877C157.452 100.4 157.361 99.9197 157.147 99.4911C156.933 99.0624 156.603 98.7019 156.195 98.4499C155.788 98.198 155.318 98.0645 154.839 98.0645C153.47 98.0645 152.157 97.5207 151.189 96.5528C150.221 95.5849 149.677 94.2721 149.677 92.9032V85.1613C149.678 80.9784 148.752 76.8473 146.967 73.0642C145.183 69.2812 142.583 65.9399 139.355 63.28V2.58065C139.355 1.89622 139.083 1.23982 138.599 0.755853C138.115 0.271888 137.459 0 136.774 0H2.58065C1.89622 0 1.23982 0.271888 0.755853 0.755853C0.271888 1.23982 0 1.89622 0 2.58065V100.645C0 101.33 0.271888 101.986 0.755853 102.47C1.23982 102.954 1.89622 103.226 2.58065 103.226H68.4155L85.7058 125.455C86.0203 125.857 86.4456 126.158 86.929 126.32C88.6697 126.899 90.1837 128.012 91.2561 129.5C92.3286 130.989 92.9049 132.777 92.9032 134.612V139.355H85.1613C84.4769 139.355 83.8205 139.627 83.3365 140.111C82.8525 140.595 82.5806 141.251 82.5806 141.935V157.419C82.5806 158.104 82.8525 158.76 83.3365 159.244C83.8205 159.728 84.4769 160 85.1613 160H157.419C158.104 160 158.76 159.728 159.244 159.244C159.728 158.76 160 158.104 160 157.419V141.935C160 141.251 159.728 140.595 159.244 140.111C158.76 139.627 158.104 139.355 157.419 139.355ZM144.516 85.1613V92.9032C144.516 94.858 145.072 96.7725 146.117 98.424C147.163 100.075 148.656 101.396 150.423 102.232L145.806 108.387H131.613V105.125C134.001 103.465 135.952 101.251 137.3 98.6739C138.648 96.0964 139.353 93.2313 139.355 90.3226V77.4193C139.355 76.7349 139.083 76.0785 138.599 75.5946C138.115 75.1106 137.459 74.8387 136.774 74.8387C135.476 74.8428 134.19 74.5892 132.991 74.0926C131.792 73.596 130.703 72.8663 129.788 71.9458L128.276 70.4335C127.792 69.9495 127.136 69.6776 126.452 69.6774H122.508C118.558 69.6641 114.683 70.7578 111.323 72.8346C107.963 74.9113 105.251 77.888 103.497 81.4271C103.318 81.7854 103.225 82.1803 103.226 82.5806V90.3226C103.227 93.2313 103.932 96.0964 105.28 98.6739C106.628 101.251 108.58 103.465 110.968 105.125V108.387H96.8129L92.3252 102.103C94.0429 101.255 95.4901 99.9452 96.504 98.3199C97.5179 96.6947 98.0583 94.8188 98.0645 92.9032V85.1613C98.0645 79.0014 100.512 73.0938 104.867 68.7382C109.223 64.3825 115.13 61.9355 121.29 61.9355C127.45 61.9355 133.358 64.3825 137.713 68.7382C142.069 73.0938 144.516 79.0014 144.516 85.1613ZM121.29 103.226C117.869 103.222 114.59 101.861 112.171 99.442C109.752 97.0231 108.391 93.7435 108.387 90.3226V83.2129C109.765 80.6716 111.805 78.551 114.292 77.0765C116.778 75.602 119.618 74.8287 122.508 74.8387H125.383L126.139 75.5948C128.325 77.7921 131.139 79.255 134.194 79.7806V90.3226C134.189 93.7435 132.829 97.0231 130.41 99.442C127.991 101.861 124.711 103.222 121.29 103.226ZM116.129 107.613C119.495 108.628 123.086 108.628 126.452 107.613V110.968C126.452 112.337 125.908 113.649 124.94 114.617C123.972 115.585 122.659 116.129 121.29 116.129C119.921 116.129 118.609 115.585 117.641 114.617C116.673 113.649 116.129 112.337 116.129 110.968V107.613ZM5.16129 5.16129H134.194V59.9071C129.87 57.6853 125.047 56.613 120.19 56.7934C115.332 56.9738 110.602 58.4007 106.455 60.9371C102.308 63.4735 98.8836 67.034 96.5103 71.2763C94.1369 75.5187 92.8948 80.3002 92.9032 85.1613V92.9032C92.8967 94.0023 92.5395 95.0705 91.8836 95.9525C91.2277 96.8344 90.3074 97.4839 89.2568 97.8064L84.6813 91.3987C84.6529 91.3574 84.609 91.3394 84.5781 91.3006L84.5961 91.2852L75.6594 80.1161C74.4218 78.5612 72.7081 77.4553 70.7815 76.9682C68.8548 76.481 66.8215 76.6395 64.9935 77.4193L57.4735 67.6439C64.2046 63.4691 69.0631 56.8559 71.0352 49.1848C73.0073 41.5136 71.9405 33.3772 68.0575 26.4738C64.1744 19.5703 57.7752 14.4333 50.1954 12.1348C42.6157 9.83638 34.4411 10.5541 27.3778 14.1383C20.3146 17.7225 14.9085 23.8961 12.2879 31.3706C9.66727 38.8451 10.0347 47.0429 13.3134 54.253C16.5921 61.4631 22.5288 67.1284 29.8843 70.0663C37.2399 73.0043 45.4459 72.9879 52.7897 70.0206L60.9987 80.6942C59.9892 82.1413 59.42 83.8498 59.3601 85.6132C59.3001 87.3767 59.7518 89.1198 60.6606 90.6323L65.12 98.0645H5.16129V5.16129ZM66.0645 82.6916C66.8933 82.0456 67.9431 81.7519 68.9868 81.8741C70.0305 81.9963 70.9841 82.5245 71.6413 83.3445L78.7355 92.209L70.5755 97.1123L65.0864 87.9742C64.7021 87.3295 64.5046 86.5905 64.5161 85.84C64.5157 85.2316 64.6551 84.6313 64.9235 84.0854C65.192 83.5395 65.5824 83.0626 66.0645 82.6916ZM49.5071 65.7368C45.3772 67.1375 40.9583 67.4615 36.6683 66.678C32.3783 65.8945 28.3591 64.0295 24.991 61.2594L42.3587 43.871H66.9652C66.5524 47.9119 65.1922 51.7985 62.995 55.2149C60.7978 58.6313 57.8257 61.4811 54.32 63.5329L45.9148 52.6194L41.8271 55.7677L49.5071 65.7368ZM43.871 15.6155C49.7905 16.2182 55.3208 18.845 59.5282 23.0524C63.7356 27.2598 66.3624 32.7901 66.9652 38.7097H43.871V15.6155ZM38.7097 40.2219L21.3213 57.6103C18.3654 54.0019 16.4438 49.6593 15.7611 45.045C15.0785 40.4307 15.6604 35.7176 17.4448 31.4079C19.2293 27.0982 22.1495 23.3533 25.8943 20.5723C29.6391 17.7912 34.0681 16.0781 38.7097 15.6155V40.2219ZM89.3264 121.703L73.5019 101.36L81.8658 96.3432L93.3832 112.467C93.622 112.802 93.9372 113.074 94.3025 113.262C94.6679 113.45 95.0729 113.548 95.4839 113.548H111.334C111.897 115.762 113.182 117.724 114.985 119.125C116.788 120.527 119.007 121.288 121.29 121.288C123.574 121.288 125.793 120.527 127.596 119.125C129.399 117.724 130.683 115.762 131.246 113.548H147.097C147.781 113.548 148.438 113.82 148.922 114.304C149.406 114.788 149.677 115.445 149.677 116.129V139.355H98.0645V134.612C98.0672 131.833 97.2358 129.117 95.678 126.815C94.1201 124.514 91.9075 122.733 89.3264 121.703ZM154.839 154.839H87.7419V144.516H154.839V154.839Z" fill="#273B98"/>
<path d="M2.58065 160H74.8387C75.5231 160 76.1795 159.728 76.6635 159.244C77.1475 158.76 77.4194 158.104 77.4194 157.419V149.677C77.4165 146.475 76.6669 143.317 75.2303 140.454C73.7937 137.592 71.7095 135.103 69.1432 133.187C70.8745 130.888 71.9308 128.152 72.1935 125.286C72.4561 122.42 71.9147 119.537 70.6301 116.962C69.3455 114.386 67.3685 112.22 64.9209 110.705C62.4734 109.191 59.6523 108.389 56.7742 108.389C53.8961 108.389 51.075 109.191 48.6274 110.705C46.1799 112.22 44.2029 114.386 42.9183 116.962C41.6337 119.537 41.0923 122.42 41.3549 125.286C41.6176 128.152 42.6738 130.888 44.4052 133.187C42.0689 134.935 40.128 137.156 38.7097 139.706C37.2913 137.156 35.3505 134.935 33.0142 133.187C34.7455 130.888 35.8018 128.152 36.0644 125.286C36.3271 122.42 35.7857 119.537 34.5011 116.962C33.2165 114.386 31.2394 112.22 28.7919 110.705C26.3444 109.191 23.5233 108.389 20.6452 108.389C17.7671 108.389 14.9459 109.191 12.4984 110.705C10.0509 112.22 8.07387 114.386 6.78925 116.962C5.50463 119.537 4.96325 122.42 5.2259 125.286C5.48854 128.152 6.5448 130.888 8.27613 133.187C5.70987 135.103 3.62569 137.592 2.18905 140.454C0.752421 143.317 0.00290054 146.475 0 149.677V157.419C0 158.104 0.271889 158.76 0.755853 159.244C1.23982 159.728 1.89622 160 2.58065 160ZM46.4516 123.871C46.4411 122.201 46.836 120.554 47.6022 119.07C48.3684 117.586 49.4832 116.31 50.8509 115.352C52.2186 114.394 53.7983 113.782 55.4546 113.568C57.1108 113.355 58.7941 113.546 60.3601 114.127C61.926 114.707 63.3278 115.658 64.4452 116.899C65.5626 118.14 66.3623 119.634 66.7755 121.252C67.1888 122.87 67.2033 124.564 66.8179 126.189C66.4324 127.814 65.6585 129.321 64.5626 130.581C59.5721 128.534 53.9763 128.534 48.9858 130.581C47.3616 128.722 46.4619 126.34 46.4516 123.871ZM56.7742 134.194C60.8795 134.198 64.8155 135.83 67.7184 138.733C70.6213 141.636 72.254 145.572 72.2581 149.677V154.839H41.2903V149.677C41.2944 145.572 42.9271 141.636 45.83 138.733C48.7329 135.83 52.6689 134.198 56.7742 134.194ZM10.3226 123.871C10.3121 122.201 10.7069 120.554 11.4732 119.07C12.2394 117.586 13.3542 116.31 14.7219 115.352C16.0895 114.394 17.6693 113.782 19.3255 113.568C20.9818 113.355 22.6651 113.546 24.231 114.127C25.797 114.707 27.1988 115.658 28.3162 116.899C29.4336 118.14 30.2332 119.634 30.6465 121.252C31.0597 122.87 31.0743 124.564 30.6888 126.189C30.3034 127.814 29.5295 129.321 28.4335 130.581C23.4431 128.534 17.8472 128.534 12.8568 130.581C11.2326 128.722 10.3329 126.34 10.3226 123.871ZM5.16129 149.677C5.16129 145.571 6.79262 141.633 9.69641 138.729C12.6002 135.825 16.5386 134.194 20.6452 134.194C24.7517 134.194 28.6901 135.825 31.5939 138.729C34.4977 141.633 36.129 145.571 36.129 149.677V154.839H5.16129V149.677Z" fill="#273B98"/>
<path d="M129.032 15.4839H82.5806V20.6452H129.032V15.4839Z" fill="#273B98"/>
<path d="M129.032 25.8064H82.5806V30.9677H129.032V25.8064Z" fill="#273B98"/>
<path d="M129.032 36.129H82.5806V41.2903H129.032V36.129Z" fill="#273B98"/>
<path d="M129.032 46.4517H82.5806V51.613H129.032V46.4517Z" fill="#273B98"/>
</svg>
