<svg width="160" height="160" viewBox="0 0 160 160" fill="none" xmlns="http://www.w3.org/2000/svg">
<path d="M47.7944 123.947C49.9241 120.725 51.1681 116.869 51.1681 112.726C51.1681 101.478 42.0137 92.3278 30.7612 92.3278C19.5087 92.3278 10.3547 101.478 10.3547 112.726C10.3547 116.869 11.5991 120.726 13.7288 123.948C5.63406 127.301 0 135.336 0 144.376V156.875C0 158.601 1.39906 160 3.125 160H58.3978C60.1237 160 61.5228 158.601 61.5228 156.875V144.376C61.5228 135.335 55.8888 127.3 47.7944 123.947ZM30.7612 98.5778C38.5672 98.5778 44.9181 104.925 44.9181 112.726C44.9181 120.532 38.5675 126.883 30.7612 126.883C22.9553 126.883 16.6047 120.532 16.6047 112.726C16.6047 104.925 22.9553 98.5778 30.7612 98.5778ZM55.2728 153.75H6.25V144.376C6.25 137.057 11.4 130.656 18.4266 128.969C21.8553 131.58 26.1294 133.133 30.7612 133.133C35.3931 133.133 39.6675 131.58 43.0962 128.969C50.1228 130.655 55.2728 137.057 55.2728 144.376V153.75Z" fill="#273B98"/>
<path d="M146.258 123.947C148.388 120.725 149.632 116.869 149.632 112.726C149.632 101.478 140.478 92.3278 129.225 92.3278C117.978 92.3278 108.828 101.478 108.828 112.726C108.828 116.868 110.071 120.724 112.199 123.945C104.101 127.297 98.4641 135.334 98.4641 144.376V156.875C98.4641 158.601 99.8632 160 101.589 160H156.871C158.597 160 159.996 158.601 159.996 156.875V144.376C159.996 135.335 154.358 127.299 146.258 123.947ZM129.225 98.5778C137.031 98.5778 143.382 104.925 143.382 112.726C143.382 120.532 137.031 126.883 129.225 126.883C121.424 126.883 115.078 120.532 115.078 112.726C115.078 104.925 121.424 98.5778 129.225 98.5778ZM153.746 153.75H104.714V144.376C104.714 137.056 109.866 130.653 116.895 128.968C120.322 131.579 124.595 133.133 129.225 133.133C133.857 133.133 138.132 131.579 141.56 128.969C148.592 130.655 153.745 137.057 153.745 144.376V153.75H153.746Z" fill="#273B98"/>
<path d="M129.312 82.5744C129.824 82.9022 130.41 83.0675 130.997 83.0675C131.503 83.0675 132.009 82.945 132.471 82.6981C133.468 82.1647 134.1 81.1334 134.122 80.0025L134.302 70.5725C142.58 68.5428 148.72 60.9741 148.72 52.2344C148.72 43.09 142.183 35.4459 133.537 33.7244C133.982 31.7456 134.211 29.7247 134.211 27.6794C134.21 12.4169 121.794 0 106.532 0H85.2106C83.4846 0 82.0856 1.39906 82.0856 3.125C82.0856 4.85094 83.4846 6.25 85.2106 6.25H106.532C118.347 6.25 127.961 15.8634 127.961 27.6797C127.961 29.6091 127.7 31.5112 127.189 33.3597H84.5021C75.1596 33.3597 67.3853 40.1844 65.8912 49.1094H57.4946C56.7881 49.1094 56.1024 49.3488 55.5493 49.7884L37.0409 64.5088L36.7999 52.0759C36.769 50.4788 35.5384 49.1619 33.9468 49.0231C22.9806 48.0678 14.3903 38.6925 14.3903 27.6791C14.3903 15.8634 24.0071 6.25 35.8281 6.25H57.149C58.8749 6.25 60.274 4.85094 60.274 3.125C60.274 1.39906 58.8749 0 57.149 0H35.8281C20.5609 0 8.14026 12.4169 8.14026 27.6797C8.14026 34.6244 10.7478 41.2766 15.4828 46.4116C19.5396 50.8112 24.8306 53.7509 30.6028 54.8603L30.9143 70.95C30.9374 72.1387 31.6328 73.2113 32.7084 73.7172C33.1324 73.9169 33.5865 74.0147 34.0384 74.0147C34.7324 74.0147 35.4206 73.7838 35.984 73.3356L58.5856 55.3597H65.8912C67.3853 64.2847 75.1596 71.1094 84.5021 71.1094H111.401L129.312 82.5744ZM71.8778 52.2344C71.8778 45.2731 77.5412 39.6097 84.5021 39.6097H129.846C136.807 39.6097 142.47 45.2731 142.47 52.2344C142.47 58.7225 137.412 64.2459 130.956 64.8087C129.364 64.9475 128.133 66.2647 128.103 67.8622L127.98 74.3003L114.001 65.3519C113.498 65.03 112.913 64.8587 112.316 64.8587H84.5021C77.5409 64.8591 71.8778 59.1956 71.8778 52.2344Z" fill="#273B98"/>
<path d="M89.4447 49.105C87.7188 49.105 86.3197 50.5084 86.3197 52.2344C86.3197 53.9603 87.7188 55.3594 89.4447 55.3594C91.1706 55.3594 92.5697 53.9603 92.5697 52.2344V52.2256C92.5697 50.4997 91.1706 49.105 89.4447 49.105Z" fill="#273B98"/>
<path d="M107.178 49.105C105.452 49.105 104.053 50.5084 104.053 52.2344C104.053 53.9603 105.452 55.3594 107.178 55.3594C108.904 55.3594 110.303 53.9603 110.303 52.2344V52.2256C110.303 50.4997 108.904 49.105 107.178 49.105Z" fill="#273B98"/>
<path d="M124.903 55.3594C126.629 55.3594 128.028 53.9603 128.028 52.2344V52.2256C128.028 50.4997 126.629 49.105 124.903 49.105C123.177 49.105 121.778 50.5084 121.778 52.2344C121.778 53.9603 123.177 55.3594 124.903 55.3594Z" fill="#273B98"/>
<path d="M71.1797 6.25H71.1976C72.9235 6.25 74.3138 4.85094 74.3138 3.125C74.3138 1.39906 72.906 0 71.1801 0C69.4541 0 68.0551 1.39906 68.0551 3.125C68.0551 4.85094 69.4538 6.25 71.1797 6.25Z" fill="#273B98"/>
</svg>
