<svg width="688" height="420" viewBox="0 0 688 420" fill="none" xmlns="http://www.w3.org/2000/svg">
<rect width="688" height="420" rx="25" fill="url(#paint0_linear_509_178)"/>
<path d="M70 118C70 115.239 72.2386 113 75 113H125C127.761 113 130 115.239 130 118V420H70V118Z" fill="#F8FAFF"/>
<path d="M160 65C160 62.2386 162.239 60 165 60H215C217.761 60 220 62.2386 220 65V420H160V65Z" fill="#F8FAFF"/>
<path d="M250 277C250 274.239 252.239 272 255 272H305C307.761 272 310 274.239 310 277V420H250V277Z" fill="#F8FAFF"/>
<path d="M340 277C340 274.239 342.239 272 345 272H395C397.761 272 400 274.239 400 277V420H340V277Z" fill="#F8FAFF"/>
<path d="M430 235C430 232.239 432.239 230 435 230H485C487.761 230 490 232.239 490 235V420H430V235Z" fill="#F8FAFF"/>
<path d="M520 318C520 315.239 522.239 313 525 313H575C577.761 313 580 315.239 580 318V420H520V318Z" fill="#F8FAFF"/>
<path d="M610 275C610 272.239 612.239 270 615 270H665C667.761 270 670 272.239 670 275V420H610V275Z" fill="#F8FAFF"/>
<path d="M60 128C60 125.239 62.2386 123 65 123H115C117.761 123 120 125.239 120 128V420H60V128Z" fill="#EAEFFF"/>
<path d="M150 75C150 72.2386 152.239 70 155 70H205C207.761 70 210 72.2386 210 75V420H150V75Z" fill="#EAEFFF"/>
<path d="M240 285C240 282.239 242.239 280 245 280H295C297.761 280 300 282.239 300 285V420H240V285Z" fill="#EAEFFF"/>
<path d="M330 285C330 282.239 332.239 280 335 280H385C387.761 280 390 282.239 390 285V420H330V285Z" fill="#EAEFFF"/>
<path d="M420 245C420 242.239 422.239 240 425 240H475C477.761 240 480 242.239 480 245V420H420V245Z" fill="#EAEFFF"/>
<path d="M510 325C510 322.239 512.239 320 515 320H565C567.761 320 570 322.239 570 325V420H510V325Z" fill="#EAEFFF"/>
<path d="M600 285C600 282.239 602.239 280 605 280H655C657.761 280 660 282.239 660 285V420H600V285Z" fill="#EAEFFF"/>
<path d="M30.377 382.896C31.2064 382.896 31.8649 383.135 32.3525 383.613C32.8447 384.087 33.0908 384.73 33.0908 385.541C33.0908 386.275 32.9245 386.92 32.5918 387.476C32.2591 388.032 31.7943 388.449 31.1973 388.727C30.6003 389 29.8984 389.137 29.0918 389.137C28.2122 389.137 27.4603 388.957 26.8359 388.597V387.476C27.5833 387.94 28.3444 388.173 29.1191 388.173C29.9896 388.173 30.6686 387.954 31.1562 387.517C31.6439 387.079 31.8877 386.468 31.8877 385.685C31.8877 385.11 31.7191 384.657 31.3818 384.324C31.0492 383.987 30.5843 383.818 29.9873 383.818C29.7686 383.818 29.5475 383.834 29.3242 383.866C29.1009 383.894 28.7842 383.962 28.374 384.071L27.8682 383.682L29.2148 379.006H33.7812L33.5557 380.052H29.9873L29.1191 383.053C29.5156 382.948 29.9349 382.896 30.377 382.896Z" fill="white"/>
<path d="M22.5977 331H21.4219L22.7617 324.759C23.0306 323.569 23.2311 322.751 23.3633 322.305C23.1354 322.546 22.8187 322.799 22.4131 323.063L21.1963 323.815L20.6494 322.947L23.7188 321.006H24.7373L22.5977 331ZM33.7539 324.068C33.7539 325.413 33.5739 326.641 33.2139 327.753C32.8584 328.865 32.3708 329.708 31.751 330.282C31.1357 330.852 30.4202 331.137 29.6045 331.137C28.8024 331.137 28.1872 330.847 27.7588 330.269C27.3304 329.685 27.1162 328.842 27.1162 327.739C27.1162 326.509 27.3031 325.338 27.6768 324.226C28.0505 323.109 28.5426 322.268 29.1533 321.703C29.7686 321.133 30.4704 320.849 31.2588 320.849C32.9222 320.849 33.7539 321.922 33.7539 324.068ZM31.1904 321.833C30.6755 321.833 30.1992 322.097 29.7617 322.626C29.3242 323.15 28.9688 323.886 28.6953 324.834C28.4264 325.777 28.292 326.741 28.292 327.726C28.292 328.509 28.4059 329.111 28.6338 329.53C28.8617 329.95 29.2285 330.159 29.7344 330.159C30.2585 330.159 30.7347 329.899 31.1631 329.38C31.5915 328.86 31.9333 328.113 32.1885 327.138C32.4482 326.162 32.5781 325.13 32.5781 324.041C32.5781 322.569 32.1156 321.833 31.1904 321.833Z" fill="white"/>
<path d="M22.5977 273H21.4219L22.7617 266.759C23.0306 265.569 23.2311 264.751 23.3633 264.305C23.1354 264.546 22.8187 264.799 22.4131 265.063L21.1963 265.815L20.6494 264.947L23.7188 263.006H24.7373L22.5977 273ZM30.377 266.896C31.2064 266.896 31.8649 267.135 32.3525 267.613C32.8447 268.087 33.0908 268.73 33.0908 269.541C33.0908 270.275 32.9245 270.92 32.5918 271.476C32.2591 272.032 31.7943 272.449 31.1973 272.727C30.6003 273 29.8984 273.137 29.0918 273.137C28.2122 273.137 27.4603 272.957 26.8359 272.597V271.476C27.5833 271.94 28.3444 272.173 29.1191 272.173C29.9896 272.173 30.6686 271.954 31.1562 271.517C31.6439 271.079 31.8877 270.468 31.8877 269.685C31.8877 269.11 31.7191 268.657 31.3818 268.324C31.0492 267.987 30.5843 267.818 29.9873 267.818C29.7686 267.818 29.5475 267.834 29.3242 267.866C29.1009 267.894 28.7842 267.962 28.374 268.071L27.8682 267.682L29.2148 263.006H33.7812L33.5557 264.052H29.9873L29.1191 267.053C29.5156 266.948 29.9349 266.896 30.377 266.896Z" fill="white"/>
<path d="M24.8057 215H18.6602L18.8721 213.995L22.0508 211.124C22.5156 210.7 22.9167 210.329 23.2539 210.01C23.5957 209.686 23.876 209.383 24.0947 209.101C24.318 208.813 24.4821 208.531 24.5869 208.253C24.6963 207.97 24.751 207.658 24.751 207.316C24.751 206.865 24.6143 206.507 24.3408 206.243C24.0674 205.979 23.696 205.847 23.2266 205.847C22.8757 205.847 22.5316 205.913 22.1943 206.045C21.8617 206.173 21.4925 206.391 21.0869 206.701L20.5264 205.915C21.3968 205.213 22.3379 204.862 23.3496 204.862C24.1517 204.862 24.7852 205.065 25.25 205.471C25.7194 205.872 25.9541 206.425 25.9541 207.132C25.9541 207.638 25.863 208.103 25.6807 208.526C25.5029 208.95 25.2044 209.399 24.7852 209.873C24.3704 210.347 23.7005 210.987 22.7754 211.794L20.3691 213.893V213.947H25.0039L24.8057 215ZM33.7539 208.068C33.7539 209.413 33.5739 210.641 33.2139 211.753C32.8584 212.865 32.3708 213.708 31.751 214.282C31.1357 214.852 30.4202 215.137 29.6045 215.137C28.8024 215.137 28.1872 214.847 27.7588 214.269C27.3304 213.685 27.1162 212.842 27.1162 211.739C27.1162 210.509 27.3031 209.338 27.6768 208.226C28.0505 207.109 28.5426 206.268 29.1533 205.703C29.7686 205.133 30.4704 204.849 31.2588 204.849C32.9222 204.849 33.7539 205.922 33.7539 208.068ZM31.1904 205.833C30.6755 205.833 30.1992 206.097 29.7617 206.626C29.3242 207.15 28.9688 207.886 28.6953 208.834C28.4264 209.777 28.292 210.741 28.292 211.726C28.292 212.509 28.4059 213.111 28.6338 213.53C28.8617 213.95 29.2285 214.159 29.7344 214.159C30.2585 214.159 30.7347 213.899 31.1631 213.38C31.5915 212.86 31.9333 212.113 32.1885 211.138C32.4482 210.162 32.5781 209.13 32.5781 208.041C32.5781 206.569 32.1156 205.833 31.1904 205.833Z" fill="white"/>
<path d="M24.8057 157H18.6602L18.8721 155.995L22.0508 153.124C22.5156 152.7 22.9167 152.329 23.2539 152.01C23.5957 151.686 23.876 151.383 24.0947 151.101C24.318 150.813 24.4821 150.531 24.5869 150.253C24.6963 149.97 24.751 149.658 24.751 149.316C24.751 148.865 24.6143 148.507 24.3408 148.243C24.0674 147.979 23.696 147.847 23.2266 147.847C22.8757 147.847 22.5316 147.913 22.1943 148.045C21.8617 148.173 21.4925 148.391 21.0869 148.701L20.5264 147.915C21.3968 147.213 22.3379 146.862 23.3496 146.862C24.1517 146.862 24.7852 147.065 25.25 147.471C25.7194 147.872 25.9541 148.425 25.9541 149.132C25.9541 149.638 25.863 150.103 25.6807 150.526C25.5029 150.95 25.2044 151.399 24.7852 151.873C24.3704 152.347 23.7005 152.987 22.7754 153.794L20.3691 155.893V155.947H25.0039L24.8057 157ZM30.377 150.896C31.2064 150.896 31.8649 151.135 32.3525 151.613C32.8447 152.087 33.0908 152.73 33.0908 153.541C33.0908 154.275 32.9245 154.92 32.5918 155.476C32.2591 156.032 31.7943 156.449 31.1973 156.727C30.6003 157 29.8984 157.137 29.0918 157.137C28.2122 157.137 27.4603 156.957 26.8359 156.597V155.476C27.5833 155.94 28.3444 156.173 29.1191 156.173C29.9896 156.173 30.6686 155.954 31.1562 155.517C31.6439 155.079 31.8877 154.468 31.8877 153.685C31.8877 153.11 31.7191 152.657 31.3818 152.324C31.0492 151.987 30.5843 151.818 29.9873 151.818C29.7686 151.818 29.5475 151.834 29.3242 151.866C29.1009 151.894 28.7842 151.962 28.374 152.071L27.8682 151.682L29.2148 147.006H33.7812L33.5557 148.052H29.9873L29.1191 151.053C29.5156 150.948 29.9349 150.896 30.377 150.896Z" fill="white"/>
<path d="M22.666 92.8955C23.4954 92.8955 24.154 93.1348 24.6416 93.6133C25.1338 94.0872 25.3799 94.7298 25.3799 95.541C25.3799 96.2747 25.2135 96.9196 24.8809 97.4756C24.5482 98.0316 24.0833 98.4486 23.4863 98.7266C22.8893 99 22.1875 99.1367 21.3809 99.1367C20.5013 99.1367 19.7493 98.9567 19.125 98.5967V97.4756C19.8724 97.9404 20.6335 98.1729 21.4082 98.1729C22.2786 98.1729 22.9577 97.9541 23.4453 97.5166C23.9329 97.0791 24.1768 96.4684 24.1768 95.6846C24.1768 95.1104 24.0081 94.6569 23.6709 94.3242C23.3382 93.987 22.8734 93.8184 22.2764 93.8184C22.0576 93.8184 21.8366 93.8343 21.6133 93.8662C21.39 93.8936 21.0732 93.9619 20.6631 94.0713L20.1572 93.6816L21.5039 89.0059H26.0703L25.8447 90.0518H22.2764L21.4082 93.0527C21.8047 92.9479 22.224 92.8955 22.666 92.8955ZM33.7539 92.0684C33.7539 93.4128 33.5739 94.641 33.2139 95.7529C32.8584 96.8649 32.3708 97.708 31.751 98.2822C31.1357 98.8519 30.4202 99.1367 29.6045 99.1367C28.8024 99.1367 28.1872 98.8473 27.7588 98.2686C27.3304 97.6852 27.1162 96.8421 27.1162 95.7393C27.1162 94.5088 27.3031 93.3376 27.6768 92.2256C28.0505 91.109 28.5426 90.2682 29.1533 89.7031C29.7686 89.1335 30.4704 88.8486 31.2588 88.8486C32.9222 88.8486 33.7539 89.9219 33.7539 92.0684ZM31.1904 89.833C30.6755 89.833 30.1992 90.0973 29.7617 90.626C29.3242 91.1501 28.9688 91.8861 28.6953 92.834C28.4264 93.7773 28.292 94.7412 28.292 95.7256C28.292 96.5094 28.4059 97.111 28.6338 97.5303C28.8617 97.9495 29.2285 98.1592 29.7344 98.1592C30.2585 98.1592 30.7347 97.8994 31.1631 97.3799C31.5915 96.8604 31.9333 96.113 32.1885 95.1377C32.4482 94.1624 32.5781 93.1302 32.5781 92.041C32.5781 90.569 32.1156 89.833 31.1904 89.833Z" fill="white"/>
<defs>
<linearGradient id="paint0_linear_509_178" x1="739.136" y1="48.0467" x2="387.309" y2="636.731" gradientUnits="userSpaceOnUse">
<stop stop-color="#35D5A5"/>
<stop offset="0.320833" stop-color="#00C7C5"/>
<stop offset="0.5776" stop-color="#2D9BE0"/>
<stop offset="0.7222" stop-color="#5277F7"/>
<stop offset="0.8013" stop-color="#5B75F6"/>
<stop offset="0.9292" stop-color="#7370F4"/>
<stop offset="1" stop-color="#836DF3"/>
</linearGradient>
</defs>
</svg>
